<svg width="64" height="64" viewBox="0 0 64 64" fill="none" xmlns="http://www.w3.org/2000/svg">
<path d="M32.0001 5.33333C26.7259 5.33333 21.5702 6.89731 17.1848 9.82748C12.7995 12.7576 9.3816 16.9224 7.36327 21.7951C5.34493 26.6678 4.81684 32.0296 5.84578 37.2024C6.87472 42.3752 9.41447 47.1268 13.1439 50.8562C16.8733 54.5856 21.6248 57.1253 26.7976 58.1543C31.9705 59.1832 37.3323 58.6551 42.2049 56.6368C47.0776 54.6185 51.2424 51.2005 54.1726 46.8152C57.1027 42.4299 58.6667 37.2742 58.6667 32C58.6667 28.4981 57.977 25.0305 56.6368 21.7951C55.2967 18.5598 53.3325 15.62 50.8562 13.1438C48.38 10.6676 45.4403 8.70334 42.2049 7.36321C38.9696 6.02309 35.502 5.33333 32.0001 5.33333V5.33333ZM32.0001 53.3333C27.7807 53.3333 23.6561 52.0822 20.1479 49.738C16.6396 47.3939 13.9053 44.0621 12.2906 40.1639C10.676 36.2658 10.2535 31.9763 11.0766 27.8381C11.8998 23.6998 13.9316 19.8986 16.9151 16.9151C19.8986 13.9315 23.6999 11.8997 27.8381 11.0766C31.9764 10.2534 36.2658 10.6759 40.164 12.2906C44.0621 13.9052 47.3939 16.6396 49.7381 20.1478C52.0822 23.6561 53.3334 27.7807 53.3334 32C53.3334 37.658 51.0858 43.0842 47.085 47.0849C43.0842 51.0857 37.658 53.3333 32.0001 53.3333V53.3333Z" fill="#819AB0"/>
<path d="M39.2269 24.7733C38.979 24.5234 38.684 24.325 38.3591 24.1896C38.0341 24.0542 37.6856 23.9845 37.3335 23.9845C36.9815 23.9845 36.633 24.0542 36.308 24.1896C35.983 24.325 35.6881 24.5234 35.4402 24.7733L32.0002 28.24L28.5602 24.7733C28.0581 24.2712 27.377 23.9891 26.6669 23.9891C25.9567 23.9891 25.2757 24.2712 24.7735 24.7733C24.2714 25.2755 23.9893 25.9565 23.9893 26.6667C23.9893 27.3768 24.2714 28.0579 24.7735 28.56L28.2402 32L24.7735 35.44C24.5236 35.6879 24.3252 35.9828 24.1898 36.3078C24.0544 36.6328 23.9847 36.9813 23.9847 37.3333C23.9847 37.6854 24.0544 38.0339 24.1898 38.3589C24.3252 38.6838 24.5236 38.9788 24.7735 39.2267C25.0214 39.4766 25.3164 39.675 25.6413 39.8104C25.9663 39.9458 26.3148 40.0155 26.6669 40.0155C27.0189 40.0155 27.3675 39.9458 27.6924 39.8104C28.0174 39.675 28.3123 39.4766 28.5602 39.2267L32.0002 35.76L35.4402 39.2267C35.6881 39.4766 35.983 39.675 36.308 39.8104C36.633 39.9458 36.9815 40.0155 37.3335 40.0155C37.6856 40.0155 38.0341 39.9458 38.3591 39.8104C38.684 39.675 38.979 39.4766 39.2269 39.2267C39.4768 38.9788 39.6752 38.6838 39.8106 38.3589C39.946 38.0339 40.0157 37.6854 40.0157 37.3333C40.0157 36.9813 39.946 36.6328 39.8106 36.3078C39.6752 35.9828 39.4768 35.6879 39.2269 35.44L35.7602 32L39.2269 28.56C39.4768 28.3121 39.6752 28.0172 39.8106 27.6922C39.946 27.3672 40.0157 27.0187 40.0157 26.6667C40.0157 26.3146 39.946 25.9661 39.8106 25.6411C39.6752 25.3162 39.4768 25.0212 39.2269 24.7733V24.7733Z" fill="#819AB0"/>
</svg>
