<svg width="57" height="57" viewBox="0 0 57 57" fill="none" xmlns="http://www.w3.org/2000/svg">
<path d="M25.1539 35.2909L22.4557 38.2589L25.1539 41.2269L22.4557 44.1949L19.7575 41.2269L17.0594 44.1949L14.3612 41.2269L17.0594 38.2589L14.3612 35.2909L17.0594 32.3229L19.7575 35.2909L22.4557 32.3229L25.1539 35.2909V35.2909ZM40.2739 32.3229L37.5757 35.2909L34.8775 32.3229L32.1794 35.2909L34.8775 38.2589L32.1794 41.2269L34.8775 44.1949L37.5757 41.2269L40.2739 44.1949L42.9721 41.2269L40.2739 38.2589L42.9721 35.2909L40.2739 32.3229ZM56.6666 36.8589V45.2589C56.6666 46.7989 55.5212 48.0589 54.1212 48.0589H51.5757V50.8589C51.5757 53.9669 49.3103 56.4589 46.4848 56.4589H10.8484C9.49825 56.4589 8.20336 55.8689 7.24863 54.8187C6.2939 53.7685 5.75753 52.3441 5.75753 50.8589V48.0589H3.21208C1.81208 48.0589 0.666626 46.7989 0.666626 45.2589V36.8589C0.666626 35.3189 1.81208 34.0589 3.21208 34.0589H5.75753C5.75753 23.2229 13.7248 14.4589 23.5757 14.4589H26.1212V10.9029C24.5939 9.95086 23.5757 8.13086 23.5757 6.05886C23.5757 2.97886 25.8666 0.458862 28.6666 0.458862C31.4666 0.458862 33.7575 2.97886 33.7575 6.05886C33.7575 8.13086 32.7394 9.95086 31.2121 10.9029V14.4589H33.7575C43.6084 14.4589 51.5757 23.2229 51.5757 34.0589H54.1212C55.5212 34.0589 56.6666 35.3189 56.6666 36.8589ZM51.5757 39.6589H46.4848V34.0589C46.4848 26.3309 40.783 20.0589 33.7575 20.0589H23.5757C16.5503 20.0589 10.8484 26.3309 10.8484 34.0589V39.6589H5.75753V42.4589H10.8484V50.8589H46.4848V42.4589H51.5757V39.6589Z" fill="#8CEDC6"/>
</svg>
